<?xml version="1.0" encoding="UTF-8"?>
<svg xmlns="http://www.w3.org/2000/svg" xmlns:xlink="http://www.w3.org/1999/xlink" width="29px" height="27px" viewBox="0 0 29 27" version="1.1">
<g id="surface1">
<path style=" stroke:none;fill-rule:nonzero;fill:rgb(0%,0%,0%);fill-opacity:1;" d="M 10.597656 12.589844 L 12.269531 12.589844 L 11.433594 10.195312 Z M 10.597656 12.589844 "/>
<path style=" stroke:none;fill-rule:nonzero;fill:rgb(0%,0%,0%);fill-opacity:1;" d="M 14.5 0.00390625 C 6.492188 0.00390625 0 5.167969 0 11.535156 C 0 15.652344 2.714844 19.269531 6.796875 21.304688 C 6.574219 22.078125 5.371094 26.277344 5.320312 26.605469 C 5.320312 26.605469 5.292969 26.855469 5.453125 26.949219 C 5.558594 27.003906 5.683594 27.011719 5.796875 26.96875 C 6.253906 26.90625 11.09375 23.480469 11.933594 22.890625 C 12.78125 23.011719 13.640625 23.070312 14.5 23.066406 C 22.507812 23.066406 29 17.90625 29 11.535156 C 29 5.167969 22.507812 0.00390625 14.5 0.00390625 Z M 7.324219 9.746094 C 7.304688 11.375 7.335938 13.09375 7.3125 14.699219 C 7.304688 15.210938 7.011719 15.363281 6.613281 15.511719 C 6.570312 15.527344 6.519531 15.53125 6.476562 15.519531 C 6.023438 15.429688 5.660156 15.269531 5.648438 14.699219 C 5.617188 13.09375 5.660156 11.375 5.636719 9.746094 C 5.253906 9.730469 4.707031 9.761719 4.351562 9.746094 C 3.859375 9.714844 3.515625 9.398438 3.535156 8.925781 C 3.558594 8.453125 3.804688 8.117188 4.359375 8.105469 C 5.667969 8.085938 7.289062 8.085938 8.59375 8.105469 C 9.152344 8.117188 9.402344 8.457031 9.417969 8.925781 C 9.433594 9.394531 9.097656 9.714844 8.605469 9.746094 C 8.253906 9.761719 7.707031 9.730469 7.324219 9.746094 Z M 14.351562 15.433594 C 14.183594 15.511719 14.003906 15.550781 13.816406 15.550781 C 13.46875 15.550781 13.203125 15.410156 13.121094 15.175781 L 12.703125 14.082031 L 10.15625 14.082031 L 9.738281 15.175781 C 9.65625 15.40625 9.390625 15.550781 9.042969 15.550781 C 8.859375 15.550781 8.675781 15.511719 8.511719 15.433594 C 8.277344 15.328125 8.058594 15.03125 8.3125 14.234375 L 10.316406 8.921875 C 10.488281 8.445312 10.929688 8.117188 11.433594 8.089844 C 11.9375 8.117188 12.375 8.445312 12.546875 8.925781 L 14.546875 14.234375 C 14.800781 15.03125 14.582031 15.332031 14.351562 15.433594 Z M 18.578125 15.433594 L 15.894531 15.433594 C 15.460938 15.441406 15.101562 15.097656 15.09375 14.660156 L 15.09375 8.933594 C 15.109375 8.472656 15.488281 8.105469 15.945312 8.105469 C 16.40625 8.105469 16.78125 8.472656 16.800781 8.933594 L 16.800781 13.890625 L 18.578125 13.890625 C 18.863281 13.875 19.132812 14.015625 19.28125 14.261719 C 19.429688 14.511719 19.429688 14.820312 19.28125 15.066406 C 19.132812 15.3125 18.863281 15.457031 18.578125 15.4375 Z M 25.132812 14.796875 C 25.085938 15.136719 24.84375 15.417969 24.511719 15.503906 C 24.183594 15.589844 23.835938 15.46875 23.628906 15.191406 L 21.667969 12.570312 L 21.378906 12.863281 L 21.378906 14.707031 C 21.378906 15.171875 21.003906 15.550781 20.542969 15.550781 C 20.082031 15.550781 19.707031 15.171875 19.707031 14.707031 L 19.707031 8.941406 C 19.707031 8.472656 20.082031 8.097656 20.542969 8.097656 C 21.003906 8.097656 21.378906 8.472656 21.378906 8.941406 L 21.378906 10.746094 L 23.714844 8.394531 C 23.835938 8.269531 24.003906 8.203125 24.175781 8.207031 C 24.609375 8.21875 24.964844 8.554688 25 8.988281 C 25.015625 9.179688 24.949219 9.367188 24.816406 9.503906 L 22.90625 11.425781 L 24.964844 14.179688 C 25.101562 14.355469 25.15625 14.582031 25.125 14.800781 Z M 25.132812 14.796875 "/>
</g>
</svg>
